<svg xmlns="http://www.w3.org/2000/svg" width="36" height="36" viewBox="0 0 36 36">
  <g fill="none" transform="translate(8 4)">
    <path fill="#FFF" d="M19.8139531,6.0288509 L19.8139531,27.380773 L14.4007281,27.380773 L14.4007281,23.0062933 C14.4007281,22.3247172 13.8329073,21.7670639 13.138904,21.7670639 L7.54271453,21.7670639 C6.84871132,21.7670639 6.28089051,22.3247172 6.28089051,23.0062933 L6.28089051,27.380773 L1.17050323,27.380773 L1.17050323,6.0288509 C1.17050323,5.3410786 1.73201492,4.78962153 2.43232725,4.78962153 L5.47963226,4.78962153 L14.8991486,4.78962153 L18.5521291,4.78962153 C19.2524414,4.78962153 19.8139531,5.3410786 19.8139531,6.0288509 Z M15.9086078,18.5946367 L15.9086078,15.0504407 L12.2997911,15.0504407 L12.2997911,18.5946367 L15.9086078,18.5946367 Z M15.9086078,11.8780135 L15.9086078,8.33381754 L12.2997911,8.33381754 L12.2997911,11.8780135 L15.9086078,11.8780135 Z M8.38813662,18.5946367 L8.38813662,15.0504407 L4.77931993,15.0504407 L4.77931993,18.5946367 L8.38813662,18.5946367 Z M8.38813662,11.8780135 L8.38813662,8.33381754 L4.77931993,8.33381754 L4.77931993,11.8780135 L8.38813662,11.8780135 Z"/>
    <g fill="#CCC" transform="translate(12.278 8.303)">
      <polygon points=".022 6.748 3.631 6.748 3.631 10.292 .022 10.292"/>
      <polygon points=".022 .031 3.631 .031 3.631 3.575 .022 3.575"/>
    </g>
    <path fill="#FF7100" d="M14.9054577,2.34214352 L14.9054577,4.78962153 L5.47963226,4.78962153 L5.47963226,2.34214352 C5.47963226,1.65437121 6.04745306,1.10291414 6.74145627,1.10291414 L13.6373245,1.10291414 C14.3376369,1.10291414 14.9054577,1.65437121 14.9054577,2.34214352 Z"/>
    <g fill="#CCC" transform="translate(4.77 8.303)">
      <path d="M9.63087182,14.7034565 L9.63087182,19.0779362 L1.51103426,19.0779362 L1.51103426,14.7034565 C1.51103426,14.0218804 2.07885507,13.4642271 2.77285828,13.4642271 L8.3690478,13.4642271 C9.06936013,13.4642271 9.63087182,14.0156842 9.63087182,14.7034565 Z"/>
      <polygon points=".009 6.748 3.618 6.748 3.618 10.292 .009 10.292"/>
      <polygon points=".009 .031 3.618 .031 3.618 3.575 .009 3.575"/>
    </g>
    <path fill="#000" d="M8.99381215 8.35860212C8.99381215 8.01781405 8.70990174 7.73898744 8.36290014 7.73898744L4.76670169 7.73898744C4.41970008 7.73898744 4.13578968 8.01781405 4.13578968 8.35860212L4.13578968 11.8904058C4.13578968 12.2311939 4.41970008 12.5100205 4.76670169 12.5100205L8.36290014 12.5100205C8.70990174 12.5100205 8.99381215 12.2311939 8.99381215 11.8904058L8.99381215 8.35860212zM5.39761369 8.97821681L7.73198813 8.97821681 7.73198813 11.2707912 5.39761369 11.2707912 5.39761369 8.97821681zM16.5016651 8.35860212C16.5016651 8.01781405 16.2177547 7.73898744 15.870753 7.73898744L12.2745546 7.73898744C11.927553 7.73898744 11.6436426 8.01781405 11.6436426 8.35860212L11.6436426 11.8904058C11.6436426 12.2311939 11.927553 12.5100205 12.2745546 12.5100205L15.870753 12.5100205C16.2177547 12.5100205 16.5016651 12.2311939 16.5016651 11.8904058L16.5016651 8.35860212zM12.9054666 8.97821681L15.3029322 8.97821681 15.3029322 11.2707912 12.9054666 11.2707912 12.9054666 8.97821681zM8.99381215 15.0504407C8.99381215 14.7096527 8.70990174 14.4308261 8.36290014 14.4308261L4.76670169 14.4308261C4.41970008 14.4308261 4.13578968 14.7096527 4.13578968 15.0504407L4.13578968 18.5822445C4.13578968 18.9230325 4.41970008 19.2018591 4.76670169 19.2018591L8.36290014 19.2018591C8.70990174 19.2018591 8.99381215 18.9230325 8.99381215 18.5822445L8.99381215 15.0504407zM5.39761369 15.6700554L7.73198813 15.6700554 7.73198813 17.9626298 5.39761369 17.9626298 5.39761369 15.6700554zM16.5016651 15.0504407C16.5016651 14.7096527 16.2177547 14.4308261 15.870753 14.4308261L12.2745546 14.4308261C11.927553 14.4308261 11.6436426 14.7096527 11.6436426 15.0504407L11.6436426 18.5822445C11.6436426 18.9230325 11.927553 19.2018591 12.2745546 19.2018591L15.870753 19.2018591C16.2177547 19.2018591 16.5016651 18.9230325 16.5016651 18.5822445L16.5016651 15.0504407zM12.9054666 15.6700554L15.3029322 15.6700554 15.3029322 17.9626298 12.9054666 17.9626298 12.9054666 15.6700554z"/>
    <path fill="#000" d="M0.539591224,28.0003877 L20.4764107,28.0003877 L20.4764107,26.7611583 L20.4764107,6.0288509 C20.4764107,5.00648667 19.599443,4.14522225 18.5521291,4.14522225 L15.555297,4.14522225 L15.555297,2.34214352 C15.555297,1.31977928 14.6846385,0.489495602 13.6436337,0.489495602 L10.7603658,0.489495602 L9.49854175,0.489495602 L6.74145627,0.489495602 C5.70045146,0.489495602 4.82979289,1.31358314 4.82979289,2.34214352 L4.82979289,4.14522225 L2.43232725,4.14522225 C1.39132244,4.14522225 0.539591224,5.00029052 0.539591224,6.0288509 L0.539591224,26.7611583 L0.539591224,28.0003877 Z M13.7887434,26.7611583 L6.91180252,26.7611583 L6.91180252,23.0062933 C6.91180252,22.6655052 7.19571292,22.361894 7.54271453,22.361894 L13.138904,22.361894 C13.4859057,22.361894 13.7887434,22.6655052 13.7887434,23.0062933 L13.7887434,26.7611583 Z M6.0916169,2.34214352 C6.0916169,2.00135544 6.39445467,1.72872498 6.74145627,1.72872498 L13.6373245,1.72872498 C13.9843261,1.72872498 14.2871639,2.00135544 14.2871639,2.34214352 L14.2871639,4.14522225 L6.0916169,4.14522225 L6.0916169,2.34214352 Z M1.80141524,6.0288509 C1.80141524,5.68806282 2.08532565,5.38445163 2.43232725,5.38445163 L18.5521291,5.38445163 C18.8991307,5.38445163 19.2145867,5.68806282 19.2145867,6.0288509 L19.2145867,26.7611583 L15.0505674,26.7611583 L15.0505674,23.0062933 C15.0505674,21.9839291 14.186218,21.1226647 13.138904,21.1226647 L7.54271453,21.1226647 C6.50170971,21.1226647 5.6499785,21.9777329 5.6499785,23.0062933 L5.6499785,26.7611583 L1.80141524,26.7611583 L1.80141524,6.0288509 Z"/>
  </g>
</svg>
