<svg xmlns="http://www.w3.org/2000/svg" width="36" height="36" viewBox="0 0 36 36">
  <g fill="none" transform="translate(6 6)">
    <polygon fill="#FFF" points="12.047 4.235 20.471 11.247 20.471 23.294 3.529 23.294 3.529 12"/>
    <polygon fill="#FF7100" points="11.647 .706 23.294 9.841 22.588 12 12 4.235 1.407 12 .706 9.841"/>
    <polygon fill="#CCC" points="17.647 2.118 20.471 2.118 20.471 7.059 17.647 5.647"/>
    <rect width="7.059" height="9.882" x="8.471" y="13.412" fill="#CCC"/>
    <g fill="#000">
      <path d="M23.993625,10.3822031 C23.9504531,9.82026562 23.6910469,9.30895312 23.2632656,8.94239062 L21.1873594,7.16301562 L21.1873594,2.10675 C21.1873594,1.7184375 20.8725469,1.40367187 20.4842813,1.40367187 L17.671875,1.40367187 C17.2835625,1.40367187 16.9781719,1.71848437 16.9781719,2.10675 L16.9781719,3.547125 L13.4198438,0.514546875 C12.624375,-0.16696875 11.4697031,-0.166875 10.6767656,0.51253125 L0.73725,8.94229687 C-0.141796875,9.69548437 -0.25584375,11.024625 0.50915625,11.9175937 C1.09223438,12.5956406 2.02621875,12.8118281 2.8224375,12.5319844 L2.8224375,23.2937344 C2.8224375,23.6820469 3.127875,23.9968125 3.51614063,23.9968125 L20.4842344,23.9968125 C20.8725469,23.9968125 21.1873125,23.682 21.1873125,23.2937344 L21.1873125,12.532125 C22.0092188,12.82275 22.9235156,12.5791875 23.4920156,11.9166562 C23.8585781,11.4887812 24.03675,10.9438125 23.993625,10.3822031 Z M18.3749531,2.80982812 L19.7905313,2.80982812 L19.7905313,5.95767187 L18.3749531,4.752375 L18.3749531,2.80982812 Z M14.8688438,22.5906562 L9.14095313,22.5906562 L9.14095313,14.1329393 L14.8688438,14.1329393 L14.8688438,22.5906562 Z M16.2656719,22.5906562 L16.2656719,13.4392362 C16.2656719,13.0509237 15.9508594,12.7361581 15.5625937,12.7361581 L8.43782812,12.7361581 C8.04951562,12.7361581 7.744125,13.0509706 7.744125,13.4392362 L7.744125,22.5906562 L4.21926563,22.5906562 L4.21926563,11.5207031 L12.0447188,4.88259375 L19.7905781,11.5141406 L19.7905781,22.5906562 L16.2656719,22.5906562 Z M22.4244844,11.0012812 C22.1752031,11.2918125 21.7320469,11.3344219 21.4327031,11.0777344 L12.5046094,3.42473437 C12.2423438,3.199875 11.855625,3.1989375 11.5922344,3.42239062 C11.4019688,3.58373437 2.6053125,11.0457656 2.56809375,11.0773594 C2.273625,11.3293125 1.8283125,11.2949531 1.57617188,11.0016562 C1.32375,10.7070469 1.357875,10.26225 1.64971875,10.012125 L11.5892813,1.5823125 C11.8545938,1.3550625 12.239625,1.35501562 12.50475,1.58221875 L22.3482188,10.0101094 C22.6425,10.2622969 22.6765781,10.7071406 22.4244844,11.0012812 Z"/>
      <circle cx="13.059" cy="18.706" r="1.059"/>
    </g>
  </g>
</svg>
