<svg xmlns="http://www.w3.org/2000/svg" xmlns:xlink="http://www.w3.org/1999/xlink" width="38" height="39" viewBox="0 0 38 39">
  <defs>
    <path id="group-23-a" d="M8.61756085,13.9721577 C8.61783588,13.9658062 8.61817091,13.9594552 8.61856607,13.9531056 L8.61666667,14.0166667 C8.61666667,12.9028924 9.51955909,12 10.6333333,12 L26.7666667,12 C27.8804409,12 28.7833333,12.9028924 28.7833333,14.0166667 L28.7833333,24.1 C28.7833333,25.2137742 27.8804409,26.1166667 26.7666667,26.1166667 L10.6333333,26.1166667 C9.51955909,26.1166667 8.61666667,25.2137742 8.61666667,24.1 Z M26.7666667,15.436 L20.2512146,20.5483771 C19.1665445,21.3993226 17.6437278,21.40924 16.5480665,20.5724939 L16.5480665,20.5724939 L10.6326667,16.055 L10.6333333,24.1 L26.7666667,24.1 L26.7666667,15.436 Z M25.3096667,14.016 L11.2856667,14.016 L17.7720637,18.969754 C18.1007621,19.2207778 18.5447924,19.2432025 18.8938864,19.0383975 L19.0064464,18.9617151 L25.3096667,14.016 Z"/>
  </defs>
  <g fill="none" fill-rule="evenodd" transform="translate(0 .642)">
    <path fill="#D74A58" d="M18.7,0.358333333 C29.0277248,0.358333333 37.4,8.73060851 37.4,19.0583333 C37.4,29.3860582 29.0277248,37.7583333 18.7,37.7583333 C8.37227518,37.7583333 1.26478151e-15,29.3860582 0,19.0583333 C-1.26478151e-15,8.73060851 8.37227518,0.358333333 18.7,0.358333333 Z" opacity="0"/>
    <use fill="#FFF" fill-rule="nonzero" xlink:href="#group-23-a"/>
  </g>
</svg>
