<svg xmlns="http://www.w3.org/2000/svg" width="36" height="36" viewBox="0 0 36 36">
  <g fill="none" transform="translate(7 7)">
    <rect width="3.833" height="3.833" x="5.75" y="6.708" fill="#FF7100"/>
    <rect width="3.833" height="3.833" x="13.417" y="6.708" fill="#FF7100"/>
    <rect width="3.833" height="3.833" x="5.75" y="13.417" fill="#FF7100"/>
    <rect width="3.833" height="3.833" x="13.417" y="13.417" fill="#FF7100"/>
    <path fill="#000" d="M22.4813251,3.06747293 L20.0215069,0.232038773 C19.8936523,0.0846604346 19.7080905,0 19.5128531,0 C19.3177885,0 19.1322266,0.0846604346 19.004372,0.232038773 L16.5442082,3.06747293 C16.4379507,3.18997147 16.3793795,3.34667967 16.3793795,3.50874399 L16.3793795,6.26331882 L14.4563777,6.26331882 L14.4563777,3.50874399 C14.4563777,3.34667967 14.3979793,3.18997147 14.2917218,3.06747293 L11.8319035,0.232038773 C11.7038762,0.0846604346 11.5184871,0 11.3232497,0 C11.1280123,0 10.9424504,0.0846604346 10.8145958,0.232038773 L8.35443207,3.06747293 C8.24817459,3.18997147 8.18977613,3.34667967 8.18977613,3.50874399 L8.18977613,6.26331882 L6.26677435,6.26331882 L6.26677435,3.50874399 C6.26677435,3.34667967 6.20820313,3.18997147 6.10211841,3.06747293 L3.6421274,0.232038773 C3.51427284,0.0846604346 3.32871092,0 3.13347356,0 C2.93840897,0 2.75284704,0.0846604346 2.62499248,0.232038773 L0.164828704,3.06747293 C0.058571225,3.18997147 1.70530257e-13,3.34667967 1.70530257e-13,3.50874399 L1.70530257e-13,20.3525466 C1.70530257e-13,20.7245343 0.301494881,21.0260292 0.673309785,21.0260292 L5.59329176,21.0260292 C5.96527947,21.0260292 6.26677435,20.7245343 6.26677435,20.3525466 L6.26677435,17.321875 L8.18977613,17.321875 L8.18977613,20.3525466 C8.18977613,20.7245343 8.49127101,21.0260292 8.86308592,21.0260292 L13.7830679,21.0260292 C14.1548828,21.0260292 14.4563777,20.7245343 14.4563777,20.3525466 L14.4563777,17.321875 L16.3793795,17.321875 L16.3793795,20.3525466 C16.3793795,20.7245343 16.6808744,21.0260292 17.0528621,21.0260292 L21.9728441,21.0260292 C22.344659,21.0260292 22.6461538,20.7245343 22.6461538,20.3525466 L22.6461538,3.50874399 C22.6461538,3.34667967 22.5875826,3.18997147 22.4813251,3.06747293 L22.4813251,3.06747293 Z M17.7261719,3.76013373 L19.5128531,1.70098406 L21.2993615,3.76013373 L21.2993615,19.6792368 L17.7261719,19.6792368 L17.7261719,3.76013373 Z M9.53639574,19.6792368 L9.53639574,3.76013373 L11.3232497,1.70098406 L13.1095853,3.76013373 L13.1095853,19.6792368 L9.53639574,19.6792368 Z M1.34679238,19.6792368 L1.34679238,3.76013373 L3.13347356,1.70098406 L4.91998197,3.76013373 L4.91998197,19.6792368 L1.34679238,19.6792368 Z M8.18977613,10.7377103 L8.18977613,12.8474835 L6.26677435,12.8474835 L6.26677435,10.7377103 L8.18977613,10.7377103 Z M8.18977613,9.39091796 L6.26677435,9.39091796 L6.26677435,7.6101112 L8.18977613,7.6101112 L8.18977613,9.39091796 Z M6.26677435,14.1942758 L8.18977613,14.1942758 L8.18977613,15.9750826 L6.26677435,15.9750826 L6.26677435,14.1942758 Z M16.3793795,10.7377103 L16.3793795,12.8474835 L14.4563777,12.8474835 L14.4563777,10.7377103 L16.3793795,10.7377103 Z M16.3793795,9.39091796 L14.4563777,9.39091796 L14.4563777,7.6101112 L16.3793795,7.6101112 L16.3793795,9.39091796 Z M14.4563777,14.1942758 L16.3793795,14.1942758 L16.3793795,15.9750826 L14.4563777,15.9750826 L14.4563777,14.1942758 Z"/>
    <path fill="#000" d="M3.93100962 8.5004282C3.91459584 8.13569712 3.63521635 7.82711841 3.25769983 7.82711841 2.90540865 7.82711841 2.56797627 8.1367338 2.58421724 8.5004282 2.60063101 8.86533204 2.88018332 9.17391075 3.25769983 9.17391075 3.6098182 9.17391075 3.94725062 8.8641226 3.93100962 8.5004282zM3.93100962 15.0845929C3.91459584 14.7198618 3.63521635 14.411283 3.25769983 14.411283 2.90540865 14.411283 2.56797627 14.7210712 2.58421724 15.0845929 2.60063101 15.4494967 2.88018332 15.7580754 3.25769983 15.7580754 3.6098182 15.7580754 3.94725062 15.4482873 3.93100962 15.0845929zM11.9965595 8.5004282C11.9803185 8.13569712 11.7007662 7.82711841 11.3232497 7.82711841 10.9709585 7.82711841 10.6335261 8.1367338 10.6497671 8.5004282 10.6661809 8.86533204 10.9457332 9.17391075 11.3232497 9.17391075 11.6753681 9.17391075 12.0129732 8.8641226 11.9965595 8.5004282L11.9965595 8.5004282zM11.9965595 15.0845929C11.9803185 14.7198618 11.7007662 14.411283 11.3232497 14.411283 10.9709585 14.411283 10.6335261 14.7210712 10.6497671 15.0845929 10.6661809 15.4494967 10.9457332 15.7580754 11.3232497 15.7580754 11.6753681 15.7580754 12.0129732 15.4482873 11.9965595 15.0845929L11.9965595 15.0845929zM20.1861628 8.5004282C20.1697491 8.13569712 19.8901968 7.82711841 19.5128531 7.82711841 19.1605619 7.82711841 18.8231295 8.1367338 18.8393705 8.5004282 18.8557843 8.86533204 19.1353365 9.17391075 19.5128531 9.17391075 19.8649715 9.17391075 20.2024038 8.8641226 20.1861628 8.5004282L20.1861628 8.5004282zM20.1861628 15.0845929C20.1697491 14.7198618 19.8901968 14.411283 19.5128531 14.411283 19.1605619 14.411283 18.8231295 14.7210712 18.8393705 15.0845929 18.8557843 15.4494967 19.1353365 15.7580754 19.5128531 15.7580754 19.8649715 15.7580754 20.2024038 15.4482873 20.1861628 15.0845929L20.1861628 15.0845929z"/>
  </g>
</svg>
