<svg xmlns="http://www.w3.org/2000/svg" width="38" height="38" viewBox="0 0 38 38">
  <g fill="none" fill-rule="evenodd">
    <path d="M18.7,3.90798505e-14 C29.0277248,3.71826782e-14 37.4,8.37227518 37.4,18.7 C37.4,29.0277248 29.0277248,37.4 18.7,37.4 C8.37227518,37.4 4.0344632e-14,29.0277248 3.90798505e-14,18.7 C3.7815069e-14,8.37227518 8.37227518,4.09770227e-14 18.7,3.90798505e-14 Z"/>
    <path fill="#FFF" d="M23.7402344,9.0578125 C25.7170255,9.0578125 27.3195313,10.6603183 27.3195313,12.6371094 C27.3195313,14.6139005 25.7170255,16.2164062 23.7402344,16.2164062 C22.8304529,16.2164062 21.9999499,15.8769747 21.3684561,15.3178422 L15.9545607,18.8893485 C16.0301012,19.1788202 16.0703125,19.4825657 16.0703125,19.7957031 C16.0703125,20.25964 15.982046,20.7029611 15.8213901,21.1097894 L20.7107588,24.024553 C21.3445944,23.0197957 22.4644685,22.3523437 23.7402344,22.3523437 C25.7170255,22.3523437 27.3195313,23.9548495 27.3195313,25.9316406 C27.3195313,27.9084317 25.7170255,29.5109375 23.7402344,29.5109375 C21.7634433,29.5109375 20.1609375,27.9084317 20.1609375,25.9316406 L20.1647188,26.0788125 L14.543216,22.7286256 C14.0106866,23.101934 13.3718271,23.3338953 12.6811083,23.3700386 L12.4910156,23.375 C10.5142245,23.375 8.91171875,21.7724942 8.91171875,19.7957031 C8.91171875,17.818912 10.5142245,16.2164062 12.4910156,16.2164062 C13.4144268,16.2164062 14.2561663,16.5660842 14.8910413,17.1402474 L20.2865447,13.5804144 C20.2046511,13.2798783 20.1609375,12.9635987 20.1609375,12.6371094 C20.1609375,10.6603183 21.7634433,9.0578125 23.7402344,9.0578125 Z M23.7402344,24.3976562 C22.8930382,24.3976562 22.20625,25.0844444 22.20625,25.9316406 C22.20625,26.7788368 22.8930382,27.465625 23.7402344,27.465625 C24.5874306,27.465625 25.2742188,26.7788368 25.2742188,25.9316406 C25.2742188,25.0844444 24.5874306,24.3976562 23.7402344,24.3976562 Z M12.4910156,18.2617187 C11.6438194,18.2617187 10.9570313,18.9485069 10.9570313,19.7957031 C10.9570313,20.6428993 11.6438194,21.3296875 12.4910156,21.3296875 C12.9033374,21.3296875 13.2776638,21.1670101 13.5533133,20.9023367 L13.5300886,20.9338535 C13.5881742,20.8364196 13.6599145,20.752148 13.7414118,20.6820247 C13.9202761,20.4328893 14.025,20.126526 14.025,19.7957031 C14.025,18.9485069 13.3382118,18.2617187 12.4910156,18.2617187 Z M23.7402344,11.103125 C22.8930382,11.103125 22.20625,11.7899132 22.20625,12.6371094 C22.20625,13.4843056 22.8930382,14.1710937 23.7402344,14.1710937 C24.5874306,14.1710937 25.2742188,13.4843056 25.2742188,12.6371094 C25.2742188,11.7899132 24.5874306,11.103125 23.7402344,11.103125 Z"/>
  </g>
</svg>
