<svg xmlns="http://www.w3.org/2000/svg" width="38" height="38" viewBox="0 0 38 38">
  <g fill="none" fill-rule="evenodd">
    <path fill="#3DCA43" d="M18.7,0 C29.0277248,-1.89717227e-15 37.4,8.37227518 37.4,18.7 C37.4,29.0277248 29.0277248,37.4 18.7,37.4 C8.37227518,37.4 1.26478151e-15,29.0277248 0,18.7 C-1.26478151e-15,8.37227518 8.37227518,1.89717227e-15 18.7,0 Z" opacity="0"/>
    <path fill="#FFF" fill-rule="nonzero" d="M29.7,18.4169922 C29.7,24.3354061 24.8648352,29.133267 18.8990739,29.133267 C17.0058988,29.133267 15.2275051,28.6490332 13.6793915,27.8010859 L7.7,29.7 L9.64913099,23.9487364 C8.66631558,22.3346235 8.1003,20.4392963 8.1003,18.4162748 C8.10101738,12.4978609 12.9347474,7.7 18.9005087,7.7 C24.8655525,7.70143477 29.7,12.4985783 29.7,18.4169922 Z M18.8983565,9.40880751 C13.891737,9.40880751 9.81915088,13.4505462 9.81915088,18.4191444 C9.81915088,20.3905142 10.4619265,22.2155379 11.5487625,23.7005217 L10.4152966,27.045681 L13.9032152,25.9373235 C15.3379822,26.8785307 17.0546809,27.4266117 18.8983565,27.4266117 C23.904976,27.4266117 27.9789973,23.3855904 27.9789973,18.4169922 C27.9804317,13.4505462 23.9056934,9.40880751 18.8983565,9.40880751 Z M24.3533407,20.8855089 C24.2859067,20.7771839 24.1094303,20.7111847 23.8454332,20.5791861 C23.5821535,20.4471875 22.2786676,19.8123031 22.0369094,19.7262171 C21.792999,19.6379789 21.6165226,19.5935012 21.4400463,19.8567809 C21.2657221,20.1200607 20.7578146,20.7111847 20.6021424,20.887661 C20.4479049,21.06342 20.2936675,21.0856589 20.0289529,20.9558124 C19.7642384,20.8223791 18.9105521,20.5469038 17.8990413,19.6523266 C17.1120716,18.9550298 16.5804904,18.0963218 16.4269704,17.833042 C16.2712981,17.5704797 16.4111879,17.4284377 16.5424691,17.2978739 C16.6608374,17.1795057 16.8071836,16.9908338 16.9398996,16.8365963 C17.0726155,16.6837937 17.1163759,16.5754687 17.2046141,16.3997098 C17.2914175,16.2239508 17.2476571,16.0711481 17.1823752,15.9384322 C17.1163759,15.8064336 16.5876643,14.5151433 16.3659928,13.9893012 C16.145756,13.4641765 15.9255193,13.5509799 15.7705645,13.5509799 C15.616327,13.5509799 15.4398507,13.5294584 15.2633743,13.5294584 C15.086898,13.5294584 14.7999446,13.5933055 14.5581863,13.8565853 C14.3164281,14.119865 13.6320442,14.7547494 13.6320442,16.0474745 C13.6320442,17.3416343 14.5797078,18.5891642 14.7124238,18.7642058 C14.8458571,18.93853 16.5446213,21.6782176 19.2355268,22.7299018 C21.9278671,23.7808687 21.9278671,23.4300682 22.4128183,23.3855904 C22.8992044,23.3411126 23.9795839,22.750706 24.1991033,22.1380605 C24.4200574,21.5225454 24.4200574,20.9952685 24.3533407,20.8855089 Z"/>
  </g>
</svg>
